<?xml version="1.0" encoding="UTF-8"?>
<svg xmlns="http://www.w3.org/2000/svg" width="611.17" height="461.81" viewBox="405.71 293.68 611.17 461.81" style="background-color:#292929">
  <!-- Created using SVG Map Generator: dojo.amcharts.com/svg-map-generator -->
  <style>
    .land { fill: #4a4a4a; stroke: #000000; stroke-width: 0.5; }
    #CN-HI { fill: #4296f0; }
  </style>
  <g id="polygons">
    <path d="M832.14,515.335L834.301,517.068L837.958,518.634L838.583,521.528L840.24,522.969L841.83,522.689L844.959,523.972L845.848,525.431L845.58,527.558L849.341,527.066L849.357,530.947L847.62,534.346L848.634,535.496L850.285,534.676L850.55,538.409L851.209,540.408L854.058,541.167L855.698,540.902L856.683,537.961L858.319,537.948L860.22,541.149L859.606,544.313L855.34,542.712L854.801,548.068L853.261,548.397L852.134,549.947L851.9,551.953L854.768,555.962L856.806,556.263L856.876,558.958L855.204,560.68L856.054,561.68L859.036,561.633L859.931,560.676L862.016,562.383L864.458,562.972L863.844,567.145L862.547,569.738L860.807,570.72L861.624,572.985L860.426,574.727L857.73,573.767L856.865,577.347L857.123,579.551L855.745,581.032L855.59,582.59L853.711,584.282L853.064,585.745L850.171,587.379L848.383,584.776L845.348,585.174L844.179,584.675L842.845,582.359L840.851,580.111L839.065,581.19L839.458,582.881L836.767,584.865L834.898,583.93L837.355,579.538L836.199,578.34L834.29,578.078L833.768,580.266L831.029,581.893L829.773,581.328L829.17,579.349L829.085,575.966L827.293,573.474L827.586,571.582L826.064,569.263L827.128,566.735L829.176,565.371L827.188,562.839L825.475,562.086L824.267,562.834L822.195,559.293L822.258,557.957L823.457,555.556L825.228,554.093L827.556,553.88L827.805,548.812L827.253,544.369L825.375,544.279L824.117,545.329L822.563,543.197L820.484,543.002L820.482,539.371L817.934,538.288L817.497,536.256L819.974,536.25L821.417,535.577L822.132,532.964L821.642,532.252L822.623,529.849L824.846,529.475L823.953,525.49L824.472,523.456L826.533,522.925L828.117,523.863L828.278,525.152L830.031,527.821L832.751,526.526L834.854,524.248L833.66,522.34L833.418,519.918L830.552,518.773L830.331,516.154Z" class="land" id="CN-AH" title="Anhui"/>
    <path d="M836.406,451.156L834.426,450.916L831.82,453.131L830.78,451.834L828.307,451.394L826.015,452.384L825.338,451.282L823.301,450.612L823.621,447.395L822.952,445.976L824.591,444.828L826.856,444.567L828.046,443.058L826.175,440.801L826.037,439.607L827.545,438.677L829.453,438.704L830.789,436.591L832.99,436.551L832.89,434.279L835.094,434.265L838.335,437.743L841.424,438.223L840.324,440.156L840.544,441.66L842.152,443.49L840.312,445.274L836.191,445.954L836.207,447.506L837.544,448.154L837.346,450.079Z" class="land" id="CN-BJ" title="Beijing"/>
    <path d="M754.365,548.18L758.02,551.135L759.469,551.545L761.854,553.783L761.99,554.96L764.883,554.761L770.444,559.423L770.962,562.814L769.825,567.63L768.022,566.412L766.832,566.955L765.534,568.817L762.589,570.945L760.506,571.38L760.285,569.779L758.736,570.157L757.386,571.894L756.074,570.627L753.201,573.398L754.909,575.38L754.386,580.686L755.954,583.172L758.176,584.536L757.78,586.279L758.889,588.29L761.436,591.237L762.299,592.3L761.47,594.688L761.849,600.024L759.082,604.863L756.759,604.34L756.91,600.987L755.38,602.485L754.91,599.555L752.609,597.549L753.064,595.918L752.36,593.381L749.899,591.762L747.716,593.505L747.291,591L743.402,590.348L742.978,592.823L743.175,594.998L741.692,596.191L740.596,594.515L738.321,595.563L737.587,598.724L734.598,597.578L733.164,599.639L732.729,599.255L731.578,594.439L728.474,594.351L727.484,593.804L726.656,591.501L726.411,588.878L724.055,588.844L723.832,587.218L722.412,585.322L723.641,583.323L725.129,582.609L726.738,580.885L726.374,578.268L724.858,576.428L726.748,575.266L727.725,572.782L730.846,574.384L731.797,576.24L735.016,574.567L736.852,578.444L739.53,578.341L741.622,575.68L743.131,571.915L744.376,569.913L743.526,568.455L744.392,567.106L747.973,567.564L748.69,565.143L751.038,560.264L754.491,554.354L751.855,551.484L753.666,550.121Z" class="land" id="CN-CQ" title="Chongqing"/>
    <path d="M840.234,671.084L838.812,669.737L837.599,664.152L837.469,660.059L835.935,657.391L836.344,655.446L834.376,655.862L832.162,653.624L830.393,652.692L829.148,652.874L827.274,651.653L827.019,647.583L828.56,645.939L828.367,643.91L828.993,640.598L830.217,639.33L829.735,638.101L832.068,636.551L833.272,634.425L832.396,632.132L834.75,629.234L833.789,627.825L833.877,623.843L835.325,621.726L838.809,620.117L840.001,617.586L838.513,612.173L840.354,611.282L843.517,607.325L845.595,609.979L846.828,607.922L849.49,606.369L851.68,605.776L852.496,603.036L855.272,602.746L856.142,605.447L855.344,606.404L857.122,611.259L857.214,614.846L858.26,614.381L860.571,615.465L863.043,612.078L864.386,612.991L864.99,615.34L866.824,617.174L868.1,616.067L870.512,615.319L871.472,615.813L872.062,618.054L872.365,619.63L870.678,619.95L870.365,622.821L869.272,622.548L868.538,624.084L869.639,625.525L867.656,626.944L866.472,625.787L864.718,625.573L866.833,630.633L863.252,635.068L865.265,636.022L864.374,637.568L863.906,643.989L861.639,642.787L859.639,644.958L861.766,646.771L861.015,647.97L857.962,647.391L856.658,649.44L858.001,650.948L855.635,652.913L856.031,654.055L855.063,656.477L852.769,655.92L850.211,657.661L849.655,661.308L847.749,663.026L847.364,664.91L845.26,665.222L844.692,667.023L841.045,669.453Z" class="land" id="CN-FJ" title="Fujian"/>
    <path d="M810.931,687.109L809.101,687.701L807.567,688.425L806.261,684.295L804.182,688.863L804.802,690.502L803.732,694.215L802.45,695.432L800.648,695.97L799.835,694.215L798.033,697.466L796.713,696.072L794.928,698.805L793.073,697.884L792.887,699.247L791.5,699.77L790.072,698.29L786.726,700.431L784.884,702.305L783.404,701.878L781.823,702.933L779.782,703.345L777.86,704.546L776.724,704.362L775.329,706.916L773.194,707.443L773.352,709.577L771.079,711.207L771.01,712.474L772.902,713.089L774.342,718.283L773.411,720.542L772.094,721.61L770.363,721.847L768.946,721.061L768.098,718.066L766.523,715.921L766.799,714.798L765.762,711.868L766.812,707.046L767.107,703.35L766.593,701.731L768.075,700.435L768.87,697.09L771.478,697.123L772.551,695.465L772.781,692.761L774.071,693.062L776.248,690.836L776.082,688.61L776.651,686.533L779.488,685.482L781.078,684.044L782.461,681.917L783.184,679.743L782.455,676.028L783.759,670.908L785.028,670.709L785.331,668.117L786.899,668.192L787.375,666.196L787.55,662.326L789.426,660.174L788.098,656.133L789.038,654.532L790.535,651.95L790.315,650.422L791.395,648.354L795.326,648.778L795.792,650.556L797.35,652.226L798.791,651.734L798.389,648.404L797.355,645.822L798.887,645.627L801.033,643.16L803.123,645.404L804.465,646.113L808.281,644.005L809.025,645.384L810.963,646.447L812.467,646.052L813.93,644.574L815.985,647.148L815.059,649.572L812.55,651.413L811.917,654.413L810.363,655.517L812.173,656.772L812.905,658.258L816.023,656.392L817.25,657.176L817.985,655.854L819.657,655.66L821.354,654.32L823.276,654.25L824.202,656.264L825.65,657.471L826.822,657.104L826.031,654.438L827.274,651.653L829.148,652.874L830.393,652.692L832.162,653.624L834.376,655.862L836.344,655.446L835.935,657.391L837.469,660.059L837.599,664.152L838.812,669.737L840.234,671.084L839.026,670.669L837.25,672.047L836.971,673.868L835.919,675.2L834.921,677.84L833.754,678.494L833.404,681.244L831.31,680.951L829.845,682.732L828.418,682.784L826.659,684.186L826.088,682.62L824.885,682.242L823.7,683.962L822.751,683.495L819.111,683.467L817.423,686.394L816.012,686.176L815.557,683.397L813.645,685.573Z" class="land" id="CN-GD" title="Guangdong"/>
    <path d="M642.172,412.606L648.66,425.962L646.404,428.393L649.979,432.805L653.542,435.027L653.904,435.978L652.781,439.808L656.662,439.6L658.85,437.006L661.925,435.636L665.776,435.831L666.858,434.802L670.982,435.409L672.297,437.388L672.426,438.878L670.248,441.387L669.129,443.672L666.282,445.507L664.636,447.84L667.723,447.717L670.179,449.535L672.532,450.189L673.222,452.301L674.998,453.803L678.447,453.818L678.584,457.316L680.111,459.343L681.696,459.374L683.196,461.544L686.062,463.072L687.646,463.035L690.653,460.103L688.026,457.519L691.844,456.658L694.369,455.61L695.871,456.519L699.777,457.518L703.337,454.457L708.051,453.045L710.563,453.559L710.18,455.067L711.697,457.635L711.385,459.541L709.976,460.175L708.436,463.285L703.841,466.297L705.15,469.504L703.346,470.328L703.82,473.435L706.383,474.224L708.588,476.715L711.424,479.074L712.424,478.814L716.235,479.07L715.538,480.804L716.323,481.835L718.061,481.505L719.287,483.74L721.23,484.501L721.416,485.781L722.833,487.032L721.552,488.045L724.234,493.524L724.561,495.433L722.775,497.154L722.831,498.783L724.406,500.979L725.928,500.734L727.402,503.022L729.655,503.589L731.197,504.782L733.049,507.438L734.403,505.802L733.814,501.384L734.822,500.721L737.516,501.122L738.608,499.895L738.482,495.793L737.625,494.346L734.478,493.51L734.534,491.123L733.886,490.026L734.576,487.864L735.928,486.697L735.166,485.097L737.201,482.329L739.486,482.908L740.95,482.416L742.055,483.276L742.382,485.428L744.124,485.555L744.688,486.576L748.234,487.45L748.745,488.802L750.729,490.038L752.672,490.103L756.291,492.534L755.655,493.936L756.277,495.555L755.684,498.043L754.192,498.871L754.433,502.015L755.391,503.252L755.253,506.024L754.086,506.775L750.974,506.446L748.843,507.337L747.116,506.541L745.791,507.315L747.307,511.13L744.593,511.721L742.246,511.39L741.312,512.117L738.537,509.295L734.869,509.394L734.308,511.328L735.072,512.999L732.526,516.134L735.085,517.344L736.536,518.892L735.294,521.999L734.394,522.483L733.578,525.315L734.311,525.96L733.694,529.02L731.278,529.998L729.024,529.161L727.882,530.712L727.408,533.87L728.609,534.168L728.611,537.478L725.848,539.035L724.469,538.638L723.302,539.117L724.054,540.972L720.689,542.954L719.955,542.231L715.929,541.995L712.633,539.717L712.487,538.216L713.374,535.916L712.278,532.088L710.092,528.112L707.345,528.484L703.196,527.342L701.244,526.443L700.818,521.518L699.239,519.974L697.091,520.335L694.073,522.698L693.676,524.268L691.687,524.553L693.173,529.025L694.58,531.129L692.435,531.734L690.889,533.778L688.596,535.923L687.572,533.942L689.251,531.382L687.62,529.998L686.19,530.635L685.789,528.318L682.336,528.188L681.47,526.047L679.838,525.21L677.64,521.494L678.937,518.822L682.516,519.889L683.128,520.576L686.065,521.441L687.258,522.868L689.347,522.466L690.489,520.057L691.651,519.099L691.366,517.085L689.856,516.631L687.07,514.49L689.008,513.974L689.028,512.146L691.127,510.34L692.619,509.78L693.657,507.401L692.651,505.502L694.09,504.859L695.154,503.079L696.989,503.573L697.348,502.361L696.672,499.958L697.612,499.172L699.245,499.51L699.092,495.955L699.978,494.003L698.105,492.872L696.975,489.332L697.022,487.366L694.357,484.663L695.695,482.184L691.909,478.878L689.978,478.217L690.6,476.943L688.53,475.679L687.426,477.526L680.909,472.202L676.293,470.171L675.929,468.339L673.33,467.417L672.204,465.678L670.855,466.269L670.864,467.911L666.859,465.93L664.569,463.792L663.719,462.368L658.347,457.748L656.001,459.648L654.039,458.444L651.112,461.376L650.397,460.595L643.774,456.709L640.599,456.257L639.925,460.328L640.266,463.976L639.944,467.176L637.981,469.006L635.862,470.203L633.862,470.203L631.625,468.768L626.212,469.006L623.623,467.694L619.387,467.576L616.092,467.932L613.503,463.663L609.149,464.253L607.384,462.368L603.5,462.956L601.852,460.956L599.97,460.019L594.841,458.284L595.783,457.428L600.244,456.653L600.176,453.078L599.497,451.924L598.397,447.794L599.921,445.015L599.88,440.138L604.239,440.456L607.063,438.718L608.723,435.49L610.663,432.886L614.769,429.201L617.369,426.407L621.346,424.506L625.877,423.597L627.337,423.989L630.339,423.118L631.397,414.656L634.057,413.257L637.122,412.955L639.678,413.316Z" class="land" id="CN-GS" title="Gansu"/>
    <path d="M763.906,635.608L765.474,635.373L767.316,637.252L768.113,633.925L769.88,633.593L769.702,635.409L771.458,635.715L772.762,634.665L775.094,631.179L776.566,632.413L778.903,631.377L781.768,632.379L780.927,635.971L783.282,639.403L781.942,640.227L782.284,641.828L781.862,644.195L779.906,646.528L778.407,649.961L778.894,651.847L781.582,648.571L783.249,649.226L783.672,653.644L783.26,655.548L784.504,656.015L785.911,653.86L789.038,654.532L788.098,656.133L789.426,660.174L787.55,662.326L787.375,666.196L786.899,668.192L785.331,668.117L785.028,670.709L783.759,670.908L782.455,676.028L783.184,679.743L782.461,681.917L781.078,684.044L779.488,685.482L776.651,686.533L776.082,688.61L776.248,690.836L774.071,693.062L772.781,692.761L772.551,695.465L771.478,697.123L768.87,697.09L768.075,700.435L766.593,701.731L764.888,701.708L763.631,703.411L760.728,704.273L760.761,702.552L759.673,701.066L754.903,700.297L754.02,701.892L752.84,701.301L748.813,702.231L747.856,700.489L744.576,701.465L743.986,700.33L741.669,699.699L740.21,698.15L739.955,696.313L737.501,695.684L736.526,693.844L736.316,691.132L734.997,688.56L735.487,686.272L736.728,686.432L737.12,683.055L735.382,681.311L732.225,682.272L731.415,680.462L729.492,680.432L728.18,681.43L726.823,679.376L725.228,679.235L724.895,677.433L724.757,676.631L727.712,672.598L729.296,672.985L730.83,671.799L731.335,668.011L730.39,664.984L729.452,663.502L727.862,664.996L724.344,665.077L721.849,662.597L720.023,658.889L718.979,659.376L717.171,658.616L715.719,659.364L714.421,655.786L714.909,654.615L716.891,656.246L718.306,654.457L719.89,653.68L720.277,651.892L721.624,650.732L723.759,651.646L724.58,653.501L727.56,655.028L729.982,655.167L731.174,654.079L730.929,651.227L732.446,650.992L735.249,649.349L735.949,648.156L738.266,647.923L739.223,647.127L738.967,644.304L741.628,642.512L743.492,644.907L744.03,647.532L745.912,646.041L746.205,647.763L747.749,648.896L750.291,647.743L750.714,644.239L752.4,642.897L753.343,644.244L755.995,643.059L758.52,642.525L759.521,643.059L759.853,639.922L761.483,640.094Z" class="land" id="CN-GX" title="Guangxi Zhuang"/>
    <path d="M733.164,599.639L734.598,597.578L737.587,598.724L738.321,595.563L740.596,594.515L741.692,596.191L743.175,594.998L742.978,592.823L743.402,590.348L747.291,591L747.716,593.505L749.899,591.762L752.36,593.381L753.064,595.918L752.609,597.549L754.91,599.555L755.38,602.485L756.91,600.987L756.759,604.34L759.082,604.863L761.849,600.024L761.835,602.66L762.928,603.347L762.106,606.385L762.549,609.559L763.458,610.88L763.67,613.23L761.186,615.046L759.733,617.357L758.185,618.451L759.339,620.224L760.8,620.489L763.028,619.193L764.195,620.485L764.625,622.298L762.659,626.488L763.173,628.234L761.817,631.269L763.479,632.562L763.906,635.608L761.483,640.094L759.853,639.922L759.521,643.059L758.52,642.525L755.995,643.059L753.343,644.244L752.4,642.897L750.714,644.239L750.291,647.743L747.749,648.896L746.205,647.763L745.912,646.041L744.03,647.532L743.492,644.907L741.628,642.512L738.967,644.304L739.223,647.127L738.266,647.923L735.949,648.156L735.249,649.349L732.446,650.992L730.929,651.227L731.174,654.079L729.982,655.167L727.56,655.028L724.58,653.501L723.759,651.646L721.624,650.732L720.277,651.892L719.89,653.68L718.306,654.457L716.891,656.246L714.909,654.615L715.055,653.254L716.681,650.736L716.988,647.513L715.989,645.368L713.924,643.635L712.878,641.819L714.77,634.706L714.989,632.408L716.373,630.607L714.436,627.603L710.922,626.692L709.736,628.54L707.793,628.25L706.684,624.342L707.426,622.242L705.968,619.86L708.355,617.118L708.982,615.18L712.168,617.184L713.206,614.823L715.741,617.086L717.72,616.472L718.214,617.349L722.118,614.093L722.536,611.378L724.339,610.406L725.811,612.068L726.757,611.352L731.357,610.674L732.752,609.703L732.607,607.55L730.91,604.814L728.277,605.386L728.313,603.664L727.235,602.415L725.87,602.682L725.682,600.243L726.398,598.72L728.378,598.619L729.159,596.445L730.533,598.195Z" class="land" id="CN-GZ" title="Guizhou"/>
    <path d="M805.956,492.656L808.801,492.742L809.297,493.797L812.669,494.429L814.551,495.793L817.491,495.578L818.644,496.417L819.781,494.599L821.791,496.23L823.269,495.148L822.948,497.193L821.832,499.732L826.541,497.234L827.675,497.763L825.035,500.792L823.472,500.931L822.001,504.092L818.779,505.6L817.014,508.237L817.732,510.891L819.663,510.412L822.796,513.265L823.85,516.16L826.753,516.359L829.436,515.791L830.331,516.154L830.552,518.773L833.418,519.918L833.66,522.34L834.854,524.248L832.751,526.526L830.031,527.821L828.278,525.152L828.117,523.863L826.533,522.925L824.472,523.456L823.953,525.49L824.846,529.475L822.623,529.849L821.642,532.252L822.132,532.964L821.417,535.577L819.974,536.25L817.497,536.256L817.934,538.288L820.482,539.371L820.484,543.002L822.563,543.197L824.117,545.329L825.375,544.279L827.253,544.369L827.805,548.812L827.556,553.88L825.228,554.093L823.457,555.556L822.258,557.957L822.195,559.293L820.719,559.019L820.863,557.209L816.904,558.502L814.851,556.72L814.339,554.282L811.568,554.501L809.913,553.26L808.402,554.399L807.117,553.165L806.058,547.655L804.921,546.146L802.914,547.314L800.826,545.199L800.111,545.88L797.442,545.602L796.382,546.322L794.264,545.545L792.028,546.587L789.403,544.589L787.732,544.161L786.06,542.782L784.589,542.921L782.681,539.728L781.396,538.971L781.279,536.844L778.757,533.9L779.218,532.797L779,529.646L777.267,528.289L776.721,526.576L775.045,525.798L775.722,524.528L773.399,520.596L773.978,519.396L772.634,517.097L772.841,515.82L775.833,515.959L781.166,513.324L784.589,512.567L785.588,510.68L787.12,509.596L789.429,509.701L789.436,506.822L792.128,507.683L798.008,507.246L799.02,505.745L801.687,504.927L803.64,503.538L804.418,499.757L805.226,499.506L805.19,495.75Z" class="land" id="CN-HA" title="Henan"/>
    <path d="M764.883,554.761L765.287,549.648L764.029,546.938L765.258,542.935L768.141,542.94L769.199,543.567L770.659,542.928L770.418,539.999L769.287,539.125L766.688,538.652L766.959,536.448L763.467,535.335L764.145,534.271L767.561,534.034L771.325,535.239L777.123,535.35L778.757,533.9L781.279,536.844L781.396,538.971L782.681,539.728L784.589,542.921L786.06,542.782L787.732,544.161L789.403,544.589L792.028,546.587L794.264,545.545L796.382,546.322L797.442,545.602L800.111,545.88L800.826,545.199L802.914,547.314L804.921,546.146L806.058,547.655L807.117,553.165L808.402,554.399L809.913,553.26L811.568,554.501L814.339,554.282L814.851,556.72L816.904,558.502L820.863,557.209L820.719,559.019L822.195,559.293L824.267,562.834L825.475,562.086L827.188,562.839L829.176,565.371L827.128,566.735L826.064,569.263L827.586,571.582L827.293,573.474L829.085,575.966L829.17,579.349L829.773,581.328L827.727,582.736L825.243,580.888L823.59,581.089L823.194,582.49L821.394,584.117L817.568,585.433L817.096,587.229L815.303,587.327L813.7,588.358L811.282,587.945L811.095,589.596L809.291,589.975L808.093,592.286L806.054,592.075L804.694,589.232L806.161,586.6L805.314,583.338L802.449,583.04L800.036,586.696L798.152,586.22L797.637,581.668L795.596,584.536L793.268,583.995L792.469,585.346L789.483,583.313L788.43,581.124L786.308,579.971L782.8,580.006L781.401,578.258L778.222,577.922L776.489,577.19L774.205,578.03L774.037,580.062L775.379,581.997L772.667,583.973L770.149,581.788L766.808,582.27L766.697,583.195L764.272,584.185L762.816,586.916L762.606,588.834L761.436,591.237L758.889,588.29L757.78,586.279L758.176,584.536L755.954,583.172L754.386,580.686L754.909,575.38L753.201,573.398L756.074,570.627L757.386,571.894L758.736,570.157L760.285,569.779L760.506,571.38L762.589,570.945L765.534,568.817L766.832,566.955L768.022,566.412L769.825,567.63L770.962,562.814L770.444,559.423Z" class="land" id="CN-HB" title="Hubei"/>
    <path d="M840.312,445.274L839.695,447.272L839.901,450.947L837.346,450.079L837.544,448.154L836.207,447.506L836.191,445.954ZM809.952,437.217L808.351,434.206L806.828,432.808L808.778,431.169L807.334,428.658L808.881,427.659L811.088,427.818L810.717,424.285L811.954,422.807L813.533,422.271L814.28,420.257L816.132,420.607L817.552,421.946L817.281,424.295L817.99,426.531L821.628,425.823L826.731,422.627L828.418,424.023L830.369,423.501L831.667,421.802L833.908,422.729L837.139,421.645L837.554,416.991L839.249,416.064L842.06,416.319L843.023,414.846L846.276,414.916L848.421,417.125L847.921,418.958L850.821,420.837L851.567,423.688L849.522,424.981L851.847,430.075L856.589,429.436L857.637,430.122L860.506,430.167L858.337,434.027L857.099,434.514L856.635,436.478L860.874,439.703L863.813,439.658L864.352,443.429L865.539,443.952L866.5,446.419L863.799,447.465L863.453,448.652L861.774,449.475L860.196,454.054L858.178,456.337L855.676,457.083L854.282,456.671L851.602,458.494L850.491,458.075L848.962,456.023L848.398,454.259L847.001,453.174L847.631,451.578L845.26,451.524L843.827,449.128L843.77,446.526L845.434,446.465L843.757,443.472L842.152,443.49L840.544,441.66L840.324,440.156L841.424,438.223L838.335,437.743L835.094,434.265L832.89,434.279L832.99,436.551L830.789,436.591L829.453,438.704L827.545,438.677L826.037,439.607L826.175,440.801L828.046,443.058L826.856,444.567L824.591,444.828L822.952,445.976L823.621,447.395L823.301,450.612L825.338,451.282L826.015,452.384L828.307,451.394L830.78,451.834L831.82,453.131L834.426,450.916L836.406,451.156L836.969,453.442L837.417,457.996L835.487,459.648L835.925,462.082L838.582,462.563L839.403,464.027L840.924,464.243L843.98,463.15L845.356,466.601L846.963,468.17L845.328,470.494L844.08,470.612L842.665,473.419L836.356,473.642L832.969,477.726L832.079,477.097L830.062,479.455L828.281,480.043L827.139,483.415L825.338,486.735L823.346,487.425L821.921,489.362L821.498,491.978L822.707,493.134L823.269,495.148L821.791,496.23L819.781,494.599L818.644,496.417L817.491,495.578L814.551,495.793L812.669,494.429L809.297,493.797L808.801,492.742L805.956,492.656L804.215,490.883L803.461,489.005L805.463,487.063L806.592,484.411L806.959,482.181L809.794,476.739L810.006,475.644L808.364,473.769L806.977,469.466L804.112,468.044L804.786,463.28L805.746,463.163L807.191,460.968L806.331,459.191L809.049,457.088L809.696,458.16L812.097,457.709L814.086,451.936L812.662,450.649L812.511,447.951L809.207,447.32L809.398,444.011L813.088,443.102L811.734,441.742L811.423,439.017Z" class="land" id="CN-HE" title="Hebei"/>
    <path d="M775.89,723.067L776.803,725.333L778.371,725.447L779.314,730.858L776.597,734.308L775.77,734.829L774.133,741.709L774.346,743.988L773.173,746.029L771.877,745.884L770.051,748.094L769.565,750.28L766.774,750.117L766.557,752.395L764.855,752.991L763.702,751.828L760.915,751.78L760.222,750.602L756.076,748.402L756.168,744.904L755.439,743.267L755.799,741.781L755.332,739.27L755.555,736.349L759.254,731.889L760.968,730.82L760.767,728.773L762.209,726.78L764.332,727.865L764.475,726.32L766.138,725.443L767.586,726.413L769.271,726.311L770.653,724.598L774.733,724.138Z" class="land" id="CN-HI" title="Hainan"/>
    <path d="M809.101,687.701L810.931,687.109L811.341,688.999L809.724,689.714Z" class="land" id="CN-HK" title="Hong Kong"/>
    <path d="M979.76,404.246L978.449,405.082L977.22,403.967L975.184,403.943L972.232,402.489L970.393,398.75L967.329,399.827L966.512,397.798L964.475,399.579L962.088,399.591L959.327,400.67L959.223,403.121L957.253,403.768L955.538,402.969L954.11,399.477L951.902,396.315L951.944,393.794L950.924,392.245L949.33,393.214L948.244,394.853L948.272,396.615L946.34,397.395L944.671,397.007L942.112,393.515L941.406,390.837L937.653,391.245L937.378,387.973L938.208,387.151L936.977,385.081L935.329,385.052L933.02,383.764L929.096,385.096L926.539,384.406L924.498,382.765L923.594,380.748L921.13,382.124L918.874,381.961L917.96,380.951L913.052,381.939L907.731,377.994L908.084,374.962L907.248,372.035L899.501,372.458L897.926,370.53L897.79,368.851L900.492,367.857L903.677,367.529L904.04,366.193L901.346,365.57L899.362,366.924L897.878,367.207L896.709,366.115L896.242,363.492L893.893,362.723L891.747,360.283L893.525,358.199L899.564,355.298L900.842,353.536L903.493,352.676L907.665,349.068L910.351,347.414L911.748,351.081L913.384,349.906L912.755,349.079L913.716,345.094L915.605,341.209L916.517,340.489L918.678,341.069L919.725,340.407L920.192,337.615L919.524,334.615L920.304,330.562L921.793,329.816L922.57,327.655L925.724,326.204L925.028,324.115L928.268,321.901L926,319.433L921.013,315.258L918.268,315.194L916.318,317.683L913.897,318.254L909.86,318.022L906.905,318.518L904.289,318.332L900.608,319.023L898.42,318.316L896.298,316.728L893.639,308.836L889.478,306.381L887.317,308.518L885.002,308.324L884.348,307.093L881.128,305.828L881.737,304.669L883.887,303.224L886.014,300.985L882.847,298.392L886.508,297.503L888.658,297.523L891.046,296.776L892.177,297.326L896.158,297.216L900.352,296.176L902.83,296.24L906.291,296.902L908.848,298.271L910.143,298.059L912.184,299.58L915.96,300.317L919.6,299.767L923.557,300.882L924.904,301.76L930.917,307.541L930.468,309.415L933.025,310.27L932.087,312.045L934.679,314.342L934.208,315.531L935.332,317.22L937.163,318.31L936.626,320.929L938.524,322.235L940.976,325.829L940.265,326.919L940.797,328.575L943.301,329.524L942.235,331.681L942.596,333.769L943.851,334.188L945.364,336.142L946.841,335.903L949.605,336.862L952.622,336.032L955.215,336.441L958.065,338.654L961.025,337.824L962.381,338.03L965.585,340.612L966.35,341.992L969.329,343.807L971.326,343.436L973.722,343.762L972.319,346.512L975.299,349.883L973.572,352.025L975.982,354.252L976.573,356.17L979.535,356.023L983.931,356.309L984.986,356.72L992.493,356.224L993.526,354.376L998.419,351.983L1001.569,352.379L1007.224,349.527L1010.588,348.961L1012.376,349.17L1013.355,350.65L1012.186,352.863L1012.566,354.139L1014.374,355.807L1014.194,356.623L1011.621,359.191L1010.041,359.272L1008.211,361.355L1006.94,366.042L1006.88,367.906L1005.249,369.95L1005.842,372.251L1003.646,373.583L1003.4,375.928L1001.991,376.442L1000.846,379.665L998.376,381.278L997.676,383.885L998.129,385.199L996.561,386.358L995.366,385.948L993.829,390.146L992.479,391.703L990.06,391.01L988.034,389.564L988.747,387.081L987.509,383.892L985.213,383.057L983.827,385.279L979.771,387.454L978.021,387.386L976.574,388.259L978.044,390.13L979.929,397.215L979.042,400.203Z" class="land" id="CN-HL" title="Heilongjiang"/>
    <path d="M761.436,591.237L762.606,588.834L762.816,586.916L764.272,584.185L766.697,583.195L766.808,582.27L770.149,581.788L772.667,583.973L775.379,581.997L774.037,580.062L774.205,578.03L776.489,577.19L778.222,577.922L781.401,578.258L782.8,580.006L786.308,579.971L788.43,581.124L789.483,583.313L792.469,585.346L793.268,583.995L795.596,584.536L797.637,581.668L798.152,586.22L800.036,586.696L802.449,583.04L805.314,583.338L806.161,586.6L804.694,589.232L806.054,592.075L808.093,592.286L809.287,595.136L810.111,595.443L809.9,598.541L811.146,602.508L809.534,604.55L808.986,606.445L806.27,608.025L806.286,610.037L804.454,613.784L805.658,616.748L807.363,617.426L806.374,620.058L807.924,622.239L807.048,624.366L807.759,627.093L809.845,627.474L809.497,630.053L808.055,633.628L809.082,634.972L808.939,637.161L807.79,640.086L808.543,642.474L808.281,644.005L804.465,646.113L803.123,645.404L801.033,643.16L798.887,645.627L797.355,645.822L798.389,648.404L798.791,651.734L797.35,652.226L795.792,650.556L795.326,648.778L791.395,648.354L790.315,650.422L790.535,651.95L789.038,654.532L785.911,653.86L784.504,656.015L783.26,655.548L783.672,653.644L783.249,649.226L781.582,648.571L778.894,651.847L778.407,649.961L779.906,646.528L781.862,644.195L782.284,641.828L781.942,640.227L783.282,639.403L780.927,635.971L781.768,632.379L778.903,631.377L776.566,632.413L775.094,631.179L772.762,634.665L771.458,635.715L769.702,635.409L769.88,633.593L768.113,633.925L767.316,637.252L765.474,635.373L763.906,635.608L763.479,632.562L761.817,631.269L763.173,628.234L762.659,626.488L764.625,622.298L764.195,620.485L763.028,619.193L760.8,620.489L759.339,620.224L758.185,618.451L759.733,617.357L761.186,615.046L763.67,613.23L763.458,610.88L762.549,609.559L762.106,606.385L762.928,603.347L761.835,602.66L761.849,600.024L761.47,594.688L762.299,592.3Z" class="land" id="CN-HN" title="Hunan"/>
    <path d="M899.501,372.458L907.248,372.035L908.084,374.962L907.731,377.994L913.052,381.939L917.96,380.951L918.874,381.961L921.13,382.124L923.594,380.748L924.498,382.765L926.539,384.406L929.096,385.096L933.02,383.764L935.329,385.052L936.977,385.081L938.208,387.151L937.378,387.973L937.653,391.245L941.406,390.837L942.112,393.515L944.671,397.007L946.34,397.395L948.272,396.615L948.244,394.853L949.33,393.214L950.924,392.245L951.944,393.794L951.902,396.315L954.11,399.477L955.538,402.969L957.253,403.768L959.223,403.121L959.327,400.67L962.088,399.591L964.475,399.579L966.512,397.798L967.329,399.827L970.393,398.75L972.232,402.489L975.184,403.943L977.22,403.967L978.449,405.082L979.76,404.246L980.055,405.258L977.199,411.604L975.256,411.417L971.953,412.523L972.24,414.545L971.449,415.298L969.582,413.325L969.689,411.133L966.099,409.873L964.621,414.104L964.556,416.273L962.513,417.413L961.174,416.466L956.778,420.934L952.471,421.89L950.415,421.401L948.007,422.106L948.746,425.176L950.263,426.265L950.15,427.494L948.731,429.368L939.918,428.143L936.237,424.351L935.291,425.55L933.549,425.886L933.316,427.242L930.358,432.031L926.676,435.069L924.085,435.054L924.546,432.722L921.956,426.678L920.737,425.65L920.459,422.248L922.359,420.172L921.19,419.733L918.288,415.806L918.496,414.535L916.196,412.277L916.254,410.16L915.459,408.583L912.822,411.492L910.992,409.958L911.774,408.986L909.811,406.914L907.86,406.543L906.19,404.997L904.688,405.44L904.707,405.515L902.073,404.923L900.946,404.048L903.109,402.547L902.485,399.805L901,397.352L899.165,392.141L892.651,395.426L890.505,395.104L890.765,392.741L889.026,391.458L888.711,387.58L889.458,381.612L887.552,380.201L887.571,378.691L885.37,377.581L886.3,374.969L887.818,375.344L890.342,377.45L891.545,376.244L894.629,378.357L895.829,377.737L895.629,374.469L898.186,374.137Z" class="land" id="CN-JL" title="Jilin"/>
    <path d="M832.14,515.335L832.875,511.878L836.208,511.3L838.095,512.283L840.399,517.762L841.884,515.952L843.903,517.653L846.356,515.196L849.212,515.192L849.036,516.419L850.259,518.725L852.253,518.043L852.49,515.749L853.438,514.315L855.057,514.747L856.792,511.192L856.771,510.105L861.109,509.267L860.413,509.798L859.896,512.448L861.232,513.957L865.981,517.639L868.232,518.209L870.855,519.924L871.473,522.638L874.895,531.246L875.178,533.657L876.93,537.166L876.587,540.592L877.059,542.632L881.695,545.604L882.3,549.383L885.214,550.657L886.422,552.249L887.197,554.643L886.625,555.423L884.231,554.708L881.006,552.666L878.966,554.019L878.839,554.923L881.23,557.906L879.505,558.796L878.465,562.965L876.777,563.074L876.963,564.739L874.864,565.543L873.121,568.143L871.741,565.531L869.593,565.791L868.02,564.538L867.198,562.473L864.458,562.972L862.016,562.383L859.931,560.676L859.036,561.633L856.054,561.68L855.204,560.68L856.876,558.958L856.806,556.263L854.768,555.962L851.9,551.953L852.134,549.947L853.261,548.397L854.801,548.068L855.34,542.712L859.606,544.313L860.22,541.149L858.319,537.948L856.683,537.961L855.698,540.902L854.058,541.167L851.209,540.408L850.55,538.409L850.285,534.676L848.634,535.496L847.62,534.346L849.357,530.947L849.341,527.066L845.58,527.558L845.848,525.431L844.959,523.972L841.83,522.689L840.24,522.969L838.583,521.528L837.958,518.634L834.301,517.068Z" class="land" id="CN-JS" title="Jiangsu"/>
    <path d="M829.773,581.328L831.029,581.893L833.768,580.266L834.29,578.078L836.199,578.34L837.355,579.538L834.898,583.93L836.767,584.865L839.458,582.881L839.065,581.19L840.851,580.111L842.845,582.359L844.179,584.675L845.348,585.174L848.383,584.776L850.171,587.379L848.574,590.437L849.25,593.061L850.85,594.044L852.576,597.596L852.496,603.036L851.68,605.776L849.49,606.369L846.828,607.922L845.595,609.979L843.517,607.325L840.354,611.282L838.513,612.173L840.001,617.586L838.809,620.117L835.325,621.726L833.877,623.843L833.789,627.825L834.75,629.234L832.396,632.132L833.272,634.425L832.068,636.551L829.735,638.101L830.217,639.33L828.993,640.598L828.367,643.91L828.56,645.939L827.019,647.583L827.274,651.653L826.031,654.438L826.822,657.104L825.65,657.471L824.202,656.264L823.276,654.25L821.354,654.32L819.657,655.66L817.985,655.854L817.25,657.176L816.023,656.392L812.905,658.258L812.173,656.772L810.363,655.517L811.917,654.413L812.55,651.413L815.059,649.572L815.985,647.148L813.93,644.574L812.467,646.052L810.963,646.447L809.025,645.384L808.281,644.005L808.543,642.474L807.79,640.086L808.939,637.161L809.082,634.972L808.055,633.628L809.497,630.053L809.845,627.474L807.759,627.093L807.048,624.366L807.924,622.239L806.374,620.058L807.363,617.426L805.658,616.748L804.454,613.784L806.286,610.037L806.27,608.025L808.986,606.445L809.534,604.55L811.146,602.508L809.9,598.541L810.111,595.443L809.287,595.136L808.093,592.286L809.291,589.975L811.095,589.596L811.282,587.945L813.7,588.358L815.303,587.327L817.096,587.229L817.568,585.433L821.394,584.117L823.194,582.49L823.59,581.089L825.243,580.888L827.727,582.736Z" class="land" id="CN-JX" title="Jiangxi"/>
    <path d="M866.5,446.419L865.539,443.952L864.352,443.429L863.813,439.658L860.874,439.703L856.635,436.478L857.099,434.514L858.337,434.027L860.506,430.167L862.129,428.218L861.108,425.448L861.308,422.261L861.901,420.764L860.943,418.623L863.516,417.572L864.14,418.774L866.523,419.281L866.479,420.622L868.436,424.09L869.299,424.615L870.912,422.516L872.743,421.605L872.667,420.603L876.801,418.656L878.338,418.836L881.225,416.393L883.806,415.663L885.034,416.466L886.985,414.802L887.221,413.646L889.861,413.165L891.679,413.727L891.557,411.722L894.027,412.589L898.416,412.589L900.213,410.019L902.524,409.435L903.529,409.924L904.715,405.549L904.688,405.44L906.19,404.997L907.86,406.543L909.811,406.914L911.774,408.986L910.992,409.958L912.822,411.492L915.459,408.583L916.254,410.16L916.196,412.277L918.496,414.535L918.288,415.806L921.19,419.733L922.359,420.172L920.459,422.248L920.737,425.65L921.956,426.678L924.546,432.722L924.085,435.054L926.676,435.069L925.283,435.365L922.237,437.525L917.752,439.715L915.063,441.721L910.963,445.519L909.262,448.603L906.423,448.087L903.247,448.796L900.81,448.833L899.137,450.443L895.885,451.397L893.57,452.969L891.744,453.174L889.032,456.047L889.296,456.867L886.178,459.327L883.776,459.484L882.676,461.1L881.519,461.012L879.957,462.307L878.877,460.129L884.55,457.799L883.854,455.371L885.403,454.368L881.71,452.121L882.55,450.878L883.309,447.956L886.858,446.304L888.731,442.694L891.19,440.421L889.372,438.858L889.463,437.893L886.47,436.134L883.518,435.936L879.753,434.912L876.29,437.932L873.886,440.684L872.506,443.862L871.08,444.034Z" class="land" id="CN-LN" title="Liaoning"/>
    <path d="M804.351,692.801L804.626,693.364L804.291,693.646L804.142,692.884Z" class="land" id="CN-MO" title="Macau"/>
    <path d="M882.847,298.392L886.014,300.985L883.887,303.224L881.737,304.669L881.128,305.828L884.348,307.093L885.002,308.324L887.317,308.518L889.478,306.381L893.639,308.836L896.298,316.728L898.42,318.316L900.608,319.023L904.289,318.332L906.905,318.518L909.86,318.022L913.897,318.254L916.318,317.683L918.268,315.194L921.013,315.258L926,319.433L928.268,321.901L925.028,324.115L925.724,326.204L922.57,327.655L921.793,329.816L920.304,330.562L919.524,334.615L920.192,337.615L919.725,340.407L918.678,341.069L916.517,340.489L915.605,341.209L913.716,345.094L912.755,349.079L913.384,349.906L911.748,351.081L910.351,347.414L907.665,349.068L903.493,352.676L900.842,353.536L899.564,355.298L893.525,358.199L891.747,360.283L893.893,362.723L896.242,363.492L896.709,366.115L897.878,367.207L899.362,366.924L901.346,365.57L904.04,366.193L903.677,367.529L900.492,367.857L897.79,368.851L897.926,370.53L899.501,372.458L898.186,374.137L895.629,374.469L895.829,377.737L894.629,378.357L891.545,376.244L890.342,377.45L887.818,375.344L886.3,374.969L885.37,377.581L887.571,378.691L887.552,380.201L889.458,381.612L888.711,387.58L889.026,391.458L890.765,392.741L890.505,395.104L892.651,395.426L899.165,392.141L901,397.352L902.485,399.805L903.109,402.547L900.946,404.048L902.073,404.923L904.707,405.515L904.715,405.549L903.529,409.924L902.524,409.435L900.213,410.019L898.416,412.589L894.027,412.589L891.557,411.722L891.679,413.727L889.861,413.165L887.221,413.646L886.985,414.802L885.034,416.466L883.806,415.663L881.225,416.393L878.338,418.836L876.801,418.656L872.667,420.603L872.743,421.605L870.912,422.516L869.299,424.615L868.436,424.09L866.479,420.622L866.523,419.281L864.14,418.774L863.516,417.572L860.943,418.623L861.901,420.764L861.308,422.261L861.108,425.448L862.129,428.218L860.506,430.167L857.637,430.122L856.589,429.436L851.847,430.075L849.522,424.981L851.567,423.688L850.821,420.837L847.921,418.958L848.421,417.125L846.276,414.916L843.023,414.846L842.06,416.319L839.249,416.064L837.554,416.991L837.139,421.645L833.908,422.729L831.667,421.802L830.369,423.501L828.418,424.023L826.731,422.627L821.628,425.823L817.99,426.531L817.281,424.295L817.552,421.946L816.132,420.607L814.28,420.257L813.533,422.271L811.954,422.807L810.717,424.285L811.088,427.818L808.881,427.659L807.334,428.658L808.778,431.169L806.828,432.808L808.351,434.206L809.952,437.217L809.231,439.78L806.329,440.416L804.26,441.997L801.851,442.335L801.203,441.201L797.657,442.272L796.247,444.232L793.391,442.613L791.879,443.185L788.629,448.725L788.184,451.101L786.509,451.406L783.906,450.548L782.425,453.422L780.303,454.185L779.213,451.712L777.712,452.575L775.168,455.677L774.187,453.988L768.608,456.449L766.238,457.977L765.843,459.667L763.342,461.281L763.081,462.427L760.697,464.376L758.873,467.177L758.476,469.175L759.687,470.387L758.558,472.491L756.962,472.213L756.98,475.529L749.413,475.761L748.936,474.146L745.821,473.091L743.416,472.141L742.622,470.329L741.024,469.474L739.408,469.937L737.485,469.471L734.986,468.134L734.4,466.949L736.098,464.622L736.371,462.29L738.965,459.428L738.919,458.043L737.263,455.849L737.226,454.223L735.387,454.215L734.239,455.15L732.265,455.393L731.111,456.761L730.213,459.056L729.115,460.006L727.944,463.459L727.708,466.209L728.07,468.058L727.125,469.776L727.842,471.439L727.054,474.052L725.456,475.337L723.479,475.203L720.622,476.183L719.416,477.321L716.714,477.817L713.715,477.691L712.424,478.814L711.424,479.074L708.588,476.715L706.383,474.224L703.82,473.435L703.346,470.328L705.15,469.504L703.841,466.297L708.436,463.285L709.976,460.175L711.385,459.541L711.697,457.635L710.18,455.067L710.563,453.559L708.051,453.045L703.337,454.457L699.777,457.518L695.871,456.519L694.369,455.61L691.844,456.658L688.026,457.519L690.653,460.103L687.646,463.035L686.062,463.072L683.196,461.544L681.696,459.374L680.111,459.343L678.584,457.316L678.447,453.818L674.998,453.803L673.222,452.301L672.532,450.189L670.179,449.535L667.723,447.717L664.636,447.84L666.282,445.507L669.129,443.672L670.248,441.387L672.426,438.878L672.297,437.388L670.982,435.409L666.858,434.802L665.776,435.831L661.925,435.636L658.85,437.006L656.662,439.6L652.781,439.808L653.904,435.978L653.542,435.027L649.979,432.805L646.404,428.393L648.66,425.962L642.172,412.606L650.442,413.659L652.701,414.202L665.063,415.01L670.001,414.085L672.85,414.286L673.283,413.659L679.078,414.113L688.041,416.162L690.482,419.215L693.961,420.154L697.173,420.231L702.948,422.958L708.298,424.159L715.044,423.244L714.948,425.917L719.017,426.127L719.904,427.067L722.593,425.046L727.505,422.355L736.236,418.728L742.007,417.562L743.853,416.302L748.402,416.899L751.633,416.302L757.018,416.925L758.858,416.365L761.863,416.769L764.595,416.185L767.438,414.356L770.596,414.202L773.522,412.302L776.042,409.221L779.444,405.838L784.667,404.119L786.51,401.706L788.431,401.287L788.908,400.245L787.427,398.239L785.232,397.404L782.809,394.107L784.521,389.766L786.309,387.02L788.643,385.555L792.995,385.882L796.225,388.022L799.98,388.885L803.354,388.976L804.96,389.526L809.167,387.139L812.44,384.695L813.766,382.311L816.132,381.415L818.587,381.998L821.947,382.211L825.728,381.581L826.167,380.849L831.198,377.924L831.085,375.788L834.284,372.005L838.211,371.33L842.014,371.316L842.739,368.738L846.484,369.416L850.968,366.427L854.191,366.701L857.982,366.087L864.117,369.062L867.35,366.823L866.158,364.924L866.529,362.727L865.143,361.944L865.288,360.538L862.902,360.371L859.699,358.144L859.425,356.355L855.977,355.229L853.035,353.127L849.478,352.719L845.916,353.235L842.1,357.066L839.465,355.193L836.452,354.212L833.395,354.839L831.027,354.466L827.85,356.657L824.292,353.823L823.638,351.176L826.768,350.201L826.722,347.393L829.589,344.598L829.041,343.631L835.425,333.538L837.877,334.782L841.108,335.72L843.131,335.753L846.854,337.045L853.867,332.642L860.153,331.741L861.8,330.048L859.965,328.28L860.917,325.618L862.953,324.224L863.291,322.514L864.996,321.366L867.975,316.967L868.465,315.517L872.794,312.643L874.5,312.19L875.805,309.896L874.245,308.362L874.851,306.093L872.582,305.122L868.706,305.686L868.369,303.837L871.343,302.595L876.36,298.946L880.167,298.875Z" class="land" id="CN-NM" title="Nei Mongol"/>
    <path d="M712.424,478.814L713.715,477.691L716.714,477.817L719.416,477.321L720.622,476.183L723.479,475.203L725.456,475.337L727.054,474.052L727.842,471.439L727.125,469.776L728.07,468.058L727.708,466.209L727.944,463.459L729.115,460.006L730.213,459.056L731.111,456.761L732.265,455.393L734.239,455.15L735.387,454.215L737.226,454.223L737.263,455.849L738.919,458.043L738.965,459.428L736.371,462.29L736.098,464.622L734.4,466.949L734.986,468.134L737.485,469.471L739.408,469.937L741.024,469.474L742.622,470.329L743.416,472.141L745.821,473.091L745.553,474.277L742.343,476.46L742.055,483.276L740.95,482.416L739.486,482.908L737.201,482.329L735.166,485.097L735.928,486.697L734.576,487.864L733.886,490.026L734.534,491.123L734.478,493.51L737.625,494.346L738.482,495.793L738.608,499.895L737.516,501.122L734.822,500.721L733.814,501.384L734.403,505.802L733.049,507.438L731.197,504.782L729.655,503.589L727.402,503.022L725.928,500.734L724.406,500.979L722.831,498.783L722.775,497.154L724.561,495.433L724.234,493.524L721.552,488.045L722.833,487.032L721.416,485.781L721.23,484.501L719.287,483.74L718.061,481.505L716.323,481.835L715.538,480.804L716.235,479.07Z" class="land" id="CN-NX" title="Ningxia Hui"/>
    <path d="M594.841,458.284L599.97,460.019L601.852,460.956L603.5,462.956L607.384,462.368L609.149,464.253L613.503,463.663L616.092,467.932L619.387,467.576L623.623,467.694L626.212,469.006L631.625,468.768L633.862,470.203L635.862,470.203L637.981,469.006L639.944,467.176L640.266,463.976L639.925,460.328L640.599,456.257L643.774,456.709L650.397,460.595L651.112,461.376L654.039,458.444L656.001,459.648L658.347,457.748L663.719,462.368L664.569,463.792L666.859,465.93L670.864,467.911L670.855,466.269L672.204,465.678L673.33,467.417L675.929,468.339L676.293,470.171L680.909,472.202L687.426,477.526L688.53,475.679L690.6,476.943L689.978,478.217L691.909,478.878L695.695,482.184L694.357,484.663L697.022,487.366L696.975,489.332L698.105,492.872L699.978,494.003L699.092,495.955L699.245,499.51L697.612,499.172L696.672,499.958L697.348,502.361L696.989,503.573L695.154,503.079L694.09,504.859L692.651,505.502L693.657,507.401L692.619,509.78L691.127,510.34L689.028,512.146L689.008,513.974L687.07,514.49L689.856,516.631L691.366,517.085L691.651,519.099L690.489,520.057L689.347,522.466L687.258,522.868L686.065,521.441L683.128,520.576L682.516,519.889L678.937,518.822L677.64,521.494L679.838,525.21L681.47,526.047L682.336,528.188L685.789,528.318L686.19,530.635L687.62,529.998L686.393,533.041L687.224,533.652L686.362,535.867L684.635,534.312L681.501,535.331L681.141,538.612L682.281,539.758L681.884,541.633L679.266,542.806L676.784,541.764L675.334,543.129L674.023,540.721L671.387,541.073L671.132,539.339L668.686,538.227L667.15,540.657L663.716,538.623L662.013,536.905L658.687,535.261L657.798,533.554L657.585,530.883L656.808,528.593L654.861,525.915L650.48,524.565L648.489,525.799L648.075,524.233L644.196,525.349L644.596,528.099L646.536,532.754L645.169,535.139L645.728,536.802L643.871,538.622L644.567,541.444L647.572,543.833L647.004,544.548L644.001,543.847L644.467,546.829L643.186,547.155L642.815,549.937L641.987,550.634L639.895,550.15L637.961,553.111L638.746,554.848L635.861,554.872L633.59,551.875L632.315,552.517L631.448,555.025L629.149,554.908L626.761,554.051L625.698,554.511L624.222,551.579L624.83,548.893L623.581,547.586L621.339,547.654L619.508,544.752L616.745,541.877L614.229,543.922L612.641,543.985L611.981,545.114L608.78,543.486L607.21,543.213L605.881,544.534L604.496,543.842L603.173,542.014L601.355,542.452L600.858,540.883L599.456,541.509L595.35,540.6L593.454,541.209L592.246,538.97L590.506,539.871L586.485,536.69L584.611,534.007L580.759,534.13L579.314,535.901L577.951,535.497L575.885,533.818L574.707,533.721L573.387,531.912L573.302,530.574L570.898,528.85L570.313,526.541L568.953,525.642L567.493,523.188L569.161,521.65L569.168,516.594L568.332,514.205L569.696,512.968L569.051,511.628L566.709,511.438L566.947,509.04L565.599,507.487L566.045,505.712L567.938,504.974L569.008,499.294L565.29,498.372L566.095,497.01L568.365,496.256L570.538,496.348L571.108,493.713L573.333,495.203L577.769,495.645L579.381,497.086L580.67,495.968L581.908,496.124L581.146,493.036L581.204,490.349L578.256,489.643L578.215,486.59L579.416,485.388L581.039,485.304L582.625,483.977L582.765,481.589L581.778,478.28L580.308,478.143L579.682,476.865L577.577,475.271L576.172,474.925L575.03,472.945L575.797,472.051L574.412,469.979L572.514,465.97L575.184,465.175L578.61,463.05L583.863,461.915L585.246,461.128L589.477,460.281Z" class="land" id="CN-QH" title="Qinghai"/>
    <path d="M687.62,529.998L689.251,531.382L687.572,533.942L688.596,535.923L690.889,533.778L692.435,531.734L694.58,531.129L693.173,529.025L691.687,524.553L693.676,524.268L694.073,522.698L697.091,520.335L699.239,519.974L700.818,521.518L701.244,526.443L703.196,527.342L707.345,528.484L710.092,528.112L712.278,532.088L713.374,535.916L712.487,538.216L712.633,539.717L715.929,541.995L719.955,542.231L720.689,542.954L724.054,540.972L723.302,539.117L724.469,538.638L725.43,541.509L727.714,539.847L729.878,539.214L730.563,541.142L732.141,541.945L735.473,542.015L736.773,541.045L740.303,542.169L740.166,543.806L741.606,545.355L743.062,543.679L744.523,545.815L745.842,545.568L747.745,548.227L751.588,547.266L753.984,547.358L754.365,548.18L753.666,550.121L751.855,551.484L754.491,554.354L751.038,560.264L748.69,565.143L747.973,567.564L744.392,567.106L743.526,568.455L744.376,569.913L743.131,571.915L741.622,575.68L739.53,578.341L736.852,578.444L735.016,574.567L731.797,576.24L730.846,574.384L727.725,572.782L726.748,575.266L724.858,576.428L726.374,578.268L726.738,580.885L725.129,582.609L723.641,583.323L722.412,585.322L723.832,587.218L724.055,588.844L726.411,588.878L726.656,591.501L727.484,593.804L728.474,594.351L731.578,594.439L732.729,599.255L733.164,599.639L730.533,598.195L729.159,596.445L728.378,598.619L726.398,598.72L725.682,600.243L725.87,602.682L727.235,602.415L728.313,603.664L728.277,605.386L730.91,604.814L732.607,607.55L732.752,609.703L731.357,610.674L726.757,611.352L725.811,612.068L724.339,610.406L722.536,611.378L721.359,606.274L719.302,606.307L718.332,608.464L715.389,609.405L712.67,606.522L714.001,605.477L714.178,603.624L712.17,601.541L711.95,597.995L709.159,598.566L707.509,599.729L708.315,602.829L706.773,604.262L706.015,603.438L704.188,605.379L704.758,607.621L704.624,609.852L702.475,612.47L701.111,615.452L698.588,617.21L698.445,621.119L699.556,624.486L700.317,628.264L699.578,630.95L697.207,632.028L696.061,631.152L693.64,631.768L690.798,635.035L687.862,633.717L686.774,632.526L686.237,630.263L683.864,627.963L684.76,626.259L683.539,624.825L683.583,623.208L681.373,621.181L681.6,618.609L680.518,617.399L678.757,612.78L676.371,608.393L675.475,609.858L673.098,609.129L670.844,606.61L670.401,604.563L671.753,604.009L669.481,598.837L666.306,595.627L665.289,598.857L663.904,599.555L664.012,603.926L663.241,604.082L661.865,601.279L661.946,598.794L661.215,595.673L661.26,589.416L660.663,585.054L660.088,583.464L660.852,579.83L660.003,576.639L659.896,573.4L659.193,569.198L659.768,568.206L657.979,566.368L658.157,564.768L656.21,562.232L656.529,560.189L657.971,561.369L658.993,559.634L656.394,556.69L654.353,553.372L654.524,550.903L652.477,547.893L652.181,546.116L649.94,544.581L647.572,543.833L644.567,541.444L643.871,538.622L645.728,536.802L645.169,535.139L646.536,532.754L644.596,528.099L644.196,525.349L648.075,524.233L648.489,525.799L650.48,524.565L654.861,525.915L656.808,528.593L657.585,530.883L657.798,533.554L658.687,535.261L662.013,536.905L663.716,538.623L667.15,540.657L668.686,538.227L671.132,539.339L671.387,541.073L674.023,540.721L675.334,543.129L676.784,541.764L679.266,542.806L681.884,541.633L682.281,539.758L681.141,538.612L681.501,535.331L684.635,534.312L686.362,535.867L687.224,533.652L686.393,533.041Z" class="land" id="CN-SC" title="Sichuan"/>
    <path d="M861.109,509.267L856.771,510.105L856.792,511.192L855.057,514.747L853.438,514.315L852.49,515.749L852.253,518.043L850.259,518.725L849.036,516.419L849.212,515.192L846.356,515.196L843.903,517.653L841.884,515.952L840.399,517.762L838.095,512.283L836.208,511.3L832.875,511.878L832.14,515.335L830.331,516.154L829.436,515.791L826.753,516.359L823.85,516.16L822.796,513.265L819.663,510.412L817.732,510.891L817.014,508.237L818.779,505.6L822.001,504.092L823.472,500.931L825.035,500.792L827.675,497.763L826.541,497.234L821.832,499.732L822.948,497.193L823.269,495.148L822.707,493.134L821.498,491.978L821.921,489.362L823.346,487.425L825.338,486.735L827.139,483.415L828.281,480.043L830.062,479.455L832.079,477.097L832.969,477.726L836.356,473.642L842.665,473.419L844.08,470.612L845.328,470.494L846.963,468.17L849.515,469.645L852.992,470.055L856.66,469.638L857.686,470.243L859.049,473.55L858.701,475.447L857.483,477.501L857.513,479.931L860.6,483.577L865.614,482.751L867.05,481.106L866.503,479.541L868.939,478.612L871.011,476.84L872.502,474.756L875.447,473.628L876.787,473.628L878.059,475.091L879.374,475.166L879.737,476.834L881.666,476.919L883.67,478.761L887.307,478.262L888.634,477.419L889.57,478.811L892.672,478.779L894.085,481.841L892.761,482.329L893.209,484.018L891.482,486.415L887.579,484.849L885.447,486.339L879.693,488.518L877.115,491.456L874.898,492.155L875.162,495.607L872.285,496.622L871.714,495.124L869.779,494.685L869.135,496.04L870.164,498.02L868.605,498.961L868.235,501.012L867.264,502.128L864.534,503.053L863.75,505.279L862.179,507.082Z" class="land" id="CN-SD" title="Shandong"/>
    <path d="M880.625,569.225L877.953,564.885L876.963,564.739L876.777,563.074L878.465,562.965L879.505,558.796L881.23,557.906L882.125,558.247L885.382,561.288L886.542,563.33L887.089,566.857L883.249,567.367ZM880.93,552.887L884.638,555.938L887.585,557.402L886.213,558.822L881.75,556.294L879.594,554.004Z" class="land" id="CN-SH" title="Shanghai"/>
    <path d="M745.821,473.091L748.936,474.146L749.413,475.761L756.98,475.529L756.962,472.213L758.558,472.491L759.687,470.387L758.476,469.175L758.873,467.177L760.697,464.376L763.081,462.427L763.342,461.281L765.843,459.667L766.238,457.977L768.608,456.449L774.187,453.988L775.168,455.677L777.712,452.575L779.213,451.712L780.303,454.185L781.01,455.338L780.172,458.143L778.729,459.106L779.113,460.334L777.82,463.215L777.724,465.6L774.812,467.635L774.052,469.191L774.156,471.982L774.943,472.568L776.856,477.235L776.018,479.912L773.286,484.805L773.363,488.431L774.027,489.775L773.478,495.207L775.1,502.217L774.186,505.191L773.057,506.881L771.755,510.972L771.48,514.627L772.841,515.82L772.634,517.097L773.978,519.396L773.399,520.596L775.722,524.528L775.045,525.798L776.721,526.576L777.267,528.289L779,529.646L779.218,532.797L778.757,533.9L777.123,535.35L771.325,535.239L767.561,534.034L764.145,534.271L763.467,535.335L766.959,536.448L766.688,538.652L769.287,539.125L770.418,539.999L770.659,542.928L769.199,543.567L768.141,542.94L765.258,542.935L764.029,546.938L765.287,549.648L764.883,554.761L761.99,554.96L761.854,553.783L759.469,551.545L758.02,551.135L754.365,548.18L753.984,547.358L751.588,547.266L747.745,548.227L745.842,545.568L744.523,545.815L743.062,543.679L741.606,545.355L740.166,543.806L740.303,542.169L736.773,541.045L735.473,542.015L732.141,541.945L730.563,541.142L729.878,539.214L727.714,539.847L725.43,541.509L724.469,538.638L725.848,539.035L728.611,537.478L728.609,534.168L727.408,533.87L727.882,530.712L729.024,529.161L731.278,529.998L733.694,529.02L734.311,525.96L733.578,525.315L734.394,522.483L735.294,521.999L736.536,518.892L735.085,517.344L732.526,516.134L735.072,512.999L734.308,511.328L734.869,509.394L738.537,509.295L741.312,512.117L742.246,511.39L744.593,511.721L747.307,511.13L745.791,507.315L747.116,506.541L748.843,507.337L750.974,506.446L754.086,506.775L755.253,506.024L755.391,503.252L754.433,502.015L754.192,498.871L755.684,498.043L756.277,495.555L755.655,493.936L756.291,492.534L752.672,490.103L750.729,490.038L748.745,488.802L748.234,487.45L744.688,486.576L744.124,485.555L742.382,485.428L742.055,483.276L742.343,476.46L745.553,474.277Z" class="land" id="CN-SN" title="Shaanxi"/>
    <path d="M809.952,437.217L811.423,439.017L811.734,441.742L813.088,443.102L809.398,444.011L809.207,447.32L812.511,447.951L812.662,450.649L814.086,451.936L812.097,457.709L809.696,458.16L809.049,457.088L806.331,459.191L807.191,460.968L805.746,463.163L804.786,463.28L804.112,468.044L806.977,469.466L808.364,473.769L810.006,475.644L809.794,476.739L806.959,482.181L806.592,484.411L805.463,487.063L803.461,489.005L804.215,490.883L805.956,492.656L805.19,495.75L805.226,499.506L804.418,499.757L803.64,503.538L801.687,504.927L799.02,505.745L798.008,507.246L792.128,507.683L789.436,506.822L789.429,509.701L787.12,509.596L785.588,510.68L784.589,512.567L781.166,513.324L775.833,515.959L772.841,515.82L771.48,514.627L771.755,510.972L773.057,506.881L774.186,505.191L775.1,502.217L773.478,495.207L774.027,489.775L773.363,488.431L773.286,484.805L776.018,479.912L776.856,477.235L774.943,472.568L774.156,471.982L774.052,469.191L774.812,467.635L777.724,465.6L777.82,463.215L779.113,460.334L778.729,459.106L780.172,458.143L781.01,455.338L780.303,454.185L782.425,453.422L783.906,450.548L786.509,451.406L788.184,451.101L788.629,448.725L791.879,443.185L793.391,442.613L796.247,444.232L797.657,442.272L801.203,441.201L801.851,442.335L804.26,441.997L806.329,440.416L809.231,439.78Z" class="land" id="CN-SX" title="Shanxi"/>
    <path d="M842.152,443.49L843.757,443.472L845.434,446.465L843.77,446.526L843.827,449.128L845.26,451.524L847.631,451.578L847.001,453.174L848.398,454.259L848.962,456.023L847.463,456.193L845.639,457.631L845.491,459.205L844.058,461.914L843.98,463.15L840.924,464.243L839.403,464.027L838.582,462.563L835.925,462.082L835.487,459.648L837.417,457.996L836.969,453.442L836.406,451.156L837.346,450.079L839.901,450.947L839.695,447.272L840.312,445.274Z" class="land" id="CN-TJ" title="Tianjin"/>
    <path d="M870.461,684.021L869.713,680.772L868.416,679.181L869.691,674.524L869.509,670.781L869.875,668.349L870.811,667.974L871.859,664.03L872.882,662.555L875.195,656.629L877.044,654.428L877.192,652.974L878.496,650.17L881.857,648.558L882.467,647.057L883.928,646.43L885.185,648.282L887.135,649.035L887.188,651.152L886.192,653.043L886.685,657.569L885.656,660.907L884.652,662.412L882.99,672.567L883.12,673.136L881.551,679.016L879.719,683.959L878.314,685.32L876.948,690.322L877.01,694.777L875.142,696.279L875.187,693.7L873.918,689.735L871.641,687.689Z" class="land" id="CN-TW" title="Taiwan"/>
    <path d="M634.057,413.257L631.397,414.656L630.339,423.118L627.337,423.989L625.877,423.597L621.346,424.506L617.369,426.407L614.769,429.201L610.663,432.886L608.723,435.49L607.063,438.718L604.239,440.456L599.88,440.138L599.921,445.015L598.397,447.794L599.497,451.924L600.176,453.078L600.244,456.653L595.783,457.428L594.841,458.284L589.477,460.281L585.246,461.128L583.863,461.915L578.61,463.05L575.184,465.175L572.514,465.97L574.412,469.979L575.797,472.051L575.03,472.945L576.172,474.925L577.577,475.271L579.682,476.865L580.308,478.143L581.778,478.28L582.765,481.589L582.625,483.977L581.039,485.304L579.416,485.388L578.215,486.59L578.256,489.643L581.204,490.349L581.146,493.036L581.908,496.124L580.67,495.968L579.381,497.086L577.769,495.645L573.333,495.203L571.108,493.713L570.538,496.348L568.365,496.256L565.953,495.383L563.443,493.504L562.397,494.05L560.367,492.594L558.804,493.417L555.856,491.06L551.026,491.638L550.127,492.518L546.942,492.879L545.044,491.917L542.77,493.471L538.904,493.505L533.355,495.671L531.934,499.386L530.954,500.195L526.704,501.152L524.151,500.248L521.833,500.688L519.894,502.094L516.078,503.303L516.066,504.222L513.38,505.803L512.173,505.11L510.31,505.763L507.046,506.021L504.08,504.988L502.934,505.272L501.671,504.135L501.295,501.671L495.89,501.197L494.945,503.228L492.258,504.604L491.939,506.204L490.432,507.104L487.379,507.312L486.224,505.802L482.137,506.459L478.806,506.054L476.596,504.467L474.908,505.781L474.924,507.034L472.501,509.76L471.922,512.39L470.013,517.474L468.478,517.901L463.595,517.96L462.468,519.403L461.38,518.931L457.834,515.721L456.337,515.808L454.49,514.323L453.018,509.463L452.167,505.339L450.372,503.705L446.267,504.357L444.143,503.568L438.294,500.19L438.009,498.444L435.846,499.551L434.588,499.321L432.582,495.183L432.667,492.167L430.93,488.552L428.951,487.337L426.99,487.95L426.34,485.505L423.944,484.083L421.721,485.187L419.934,484.056L418.223,483.902L416.876,482.843L417.43,481.215L420.569,481.578L423.641,480.206L423.842,478.778L421.776,477.169L421.465,475.868L421.644,471.37L420.368,469.118L420.303,467.091L421.124,465.07L416.207,463.161L413.82,463.037L413.278,464.728L410.42,463.704L410.061,458.421L408.207,455.546L411.026,452.982L411.973,451.356L410.916,449.145L412.971,445.201L415.958,445.261L419.553,442.016L420.787,439.812L422.369,440.728L424.659,440.84L428.362,438.163L429.42,442.866L433.291,441.258L435.677,441.849L437.554,440.578L438.794,438.51L438.67,436.953L440.186,435.8L440.948,433.723L442.763,433.25L448.867,433.997L450.984,433.085L452.785,433.579L454.078,433.014L456.014,430.672L456.082,428.976L458.533,428.257L464.71,424.45L468.739,424.376L470.463,421.634L474.8,421.125L474.849,418.58L474.066,416.711L474.75,415.659L473.702,413.943L474.559,411.934L477.852,411.134L475.91,409.34L479.698,408.136L479.386,404.48L477.148,400.079L476.08,396.398L475.396,392.557L476.779,389.655L474.769,388.425L472.302,388.867L471.609,387.974L472.526,386.427L475.774,386.075L476.658,385.238L479.22,384.599L480.822,385.093L482.948,384.079L488.733,382.399L490.007,384.243L491.356,384.792L494.311,383.888L496.621,385.206L497.674,383.939L497.784,381.659L494.696,380.517L494.856,378.937L496.801,375.416L497.045,373.16L499.124,369.43L499.801,366.848L502.015,361.736L505.187,362.155L507.456,363.43L511.99,364.457L515.862,363.96L518.404,364.023L519.592,365.993L521.143,365.495L523.724,363.483L526.759,363.419L528.414,361.529L528.517,359.94L526.877,353.785L528.797,349.12L529.938,348.509L533.539,348.427L537.244,347.271L538.973,345.431L539.461,344.064L538.578,342.491L539.98,341.195L542.652,340.79L545.461,341.508L549.561,340.534L548.911,343.063L549.274,344.381L552.062,345.515L551.222,346.976L554.555,347.967L557.241,349.516L557.046,350.635L560.124,351.83L563.17,353.65L564.779,352.658L566.727,352.6L569.01,355.103L570.473,355.118L574.367,356.859L575.551,358.716L576.155,361.382L578.297,364.058L580.073,364.591L581.546,367.379L581.698,368.914L580.055,371.804L581.147,374.972L578,378.509L577.598,380.69L578.91,382.26L579.727,384.391L582.241,384.275L586.797,385.881L590.994,385.793L595.927,386.471L601.425,386.374L605.767,386.984L612.591,390.464L613.86,392.027L616.34,392.938L617.523,394.102L620.444,395.183L624.734,394.779L623.955,397.616L625.993,398.276L627.368,401.887L629.263,405.148L629.391,406.752L633.654,411.292Z" class="land" id="CN-XJ" title="Xinjiang Uygur"/>
    <path d="M461.38,518.931L462.468,519.403L463.595,517.96L468.478,517.901L470.013,517.474L471.922,512.39L472.501,509.76L474.924,507.034L474.908,505.781L476.596,504.467L478.806,506.054L482.137,506.459L486.224,505.802L487.379,507.312L490.432,507.104L491.939,506.204L492.258,504.604L494.945,503.228L495.89,501.197L501.295,501.671L501.671,504.135L502.934,505.272L504.08,504.988L507.046,506.021L510.31,505.763L512.173,505.11L513.38,505.803L516.066,504.222L516.078,503.303L519.894,502.094L521.833,500.688L524.151,500.248L526.704,501.152L530.954,500.195L531.934,499.386L533.355,495.671L538.904,493.505L542.77,493.471L545.044,491.917L546.942,492.879L550.127,492.518L551.026,491.638L555.856,491.06L558.804,493.417L560.367,492.594L562.397,494.05L563.443,493.504L565.953,495.383L568.365,496.256L566.095,497.01L565.29,498.372L569.008,499.294L567.938,504.974L566.045,505.712L565.599,507.487L566.947,509.04L566.709,511.438L569.051,511.628L569.696,512.968L568.332,514.205L569.168,516.594L569.161,521.65L567.493,523.188L568.953,525.642L570.313,526.541L570.898,528.85L573.302,530.574L573.387,531.912L574.707,533.721L575.885,533.818L577.951,535.497L579.314,535.901L580.759,534.13L584.611,534.007L586.485,536.69L590.506,539.871L592.246,538.97L593.454,541.209L595.35,540.6L599.456,541.509L600.858,540.883L601.355,542.452L603.173,542.014L604.496,543.842L605.881,544.534L607.21,543.213L608.78,543.486L611.981,545.114L612.641,543.985L614.229,543.922L616.745,541.877L619.508,544.752L621.339,547.654L623.581,547.586L624.83,548.893L624.222,551.579L625.698,554.511L626.761,554.051L629.149,554.908L631.448,555.025L632.315,552.517L633.59,551.875L635.861,554.872L638.746,554.848L637.961,553.111L639.895,550.15L641.987,550.634L642.815,549.937L643.186,547.155L644.467,546.829L644.001,543.847L647.004,544.548L647.572,543.833L649.94,544.581L652.181,546.116L652.477,547.893L654.524,550.903L654.353,553.372L656.394,556.69L658.993,559.634L657.971,561.369L656.529,560.189L656.21,562.232L658.157,564.768L657.979,566.368L659.768,568.206L659.193,569.198L659.896,573.4L660.003,576.639L660.852,579.83L660.088,583.464L660.663,585.054L661.26,589.416L659.782,590.32L660.338,592.183L659.365,593.278L656.496,593.325L657.06,596.711L656.116,597.611L656.401,600L657.703,602.378L657.254,603.909L654.246,605.688L653.801,603.02L651.606,605.099L649.232,601.858L648.27,602.426L647.386,599.898L646.062,599.457L645.026,603.298L643.877,603.878L641.26,601.93L640.309,602.693L638.19,601.92L637.021,600.561L634.114,601.58L634.467,599.161L636.541,596.111L635.578,593.381L633.874,592.514L632.9,593.78L631.575,591.871L633.017,590.703L632.176,587.814L631.239,586.418L630.016,587.557L628.239,587.928L626.339,589.884L624.969,592.462L623.021,591.414L619.269,590.361L616.857,588.038L616.161,589.73L614.906,589.76L612.762,591.779L612.172,593.611L609.092,597.122L604.07,598.078L602.542,600.928L602.902,602.444L600.967,602.879L598.749,604.32L597.395,606.312L598.154,607.362L596.383,609.774L593.959,610.387L592.914,609.231L590.027,611.292L589.09,609.926L587.244,609.294L584.103,605.922L581.944,607.658L578.217,605.903L575.554,606.681L577.161,604.115L570.084,602.884L569.058,604.699L567.159,604.966L564.626,607.737L562.43,612.681L560.901,614.348L560.662,615.843L559.26,615.781L558.819,613.421L559.605,611.956L559.469,607.045L557.326,605.728L555.123,607.501L552.555,607.741L550.412,609.841L547.065,609.104L543.636,609.827L541.76,608.082L539.32,606.94L538.379,605.669L535.645,607.696L533.554,607.384L532.674,608.091L531.06,607.454L530.377,605.562L527.102,602.73L524.02,603.183L522.652,602.451L523.427,598.391L522.815,597.541L520.11,599.1L518.451,598.467L518.123,596.853L515.761,596.698L515.569,595.064L514.191,594.197L512.778,592.262L513.564,589.975L510.8,588.536L507.972,590.56L506.091,588.886L504.07,584.733L499.232,582.222L496.736,578.762L493.764,577.571L493.275,574.262L491.871,574.166L488.186,572.799L485.932,573.073L485.718,576.012L483.87,578.448L482.013,575.184L480.035,574.385L477.787,572.047L474.091,570.72L473.621,567.547L471.16,566.404L469.449,564.811L467.801,565.541L465.066,562.835L463.376,558.827L460.906,561.151L459.194,557.727L460.427,556.389L459.043,553.933L459.831,551.091L456.546,547.708L457.334,545.353L456.278,543.471L458.393,542.775L459.583,541.561L459.932,544.575L461.873,546.389L463.352,544.724L465.191,544.414L467.5,542.771L467.381,540.692L465.59,537.709L466.157,534.996L463.935,534.827L460.348,530.871L459.237,528.557L459.96,527L459.192,522.944L461.852,520.653Z" class="land" id="CN-XZ" title="Xizang (Tibet)"/>
    <path d="M661.26,589.416L661.215,595.673L661.946,598.794L661.865,601.279L663.241,604.082L664.012,603.926L663.904,599.555L665.289,598.857L666.306,595.627L669.481,598.837L671.753,604.009L670.401,604.563L670.844,606.61L673.098,609.129L675.475,609.858L676.371,608.393L678.757,612.78L680.518,617.399L681.6,618.609L681.373,621.181L683.583,623.208L683.539,624.825L684.76,626.259L683.864,627.963L686.237,630.263L686.774,632.526L687.862,633.717L690.798,635.035L693.64,631.768L696.061,631.152L697.207,632.028L699.578,630.95L700.317,628.264L699.556,624.486L698.445,621.119L698.588,617.21L701.111,615.452L702.475,612.47L704.624,609.852L704.758,607.621L704.188,605.379L706.015,603.438L706.773,604.262L708.315,602.829L707.509,599.729L709.159,598.566L711.95,597.995L712.17,601.541L714.178,603.624L714.001,605.477L712.67,606.522L715.389,609.405L718.332,608.464L719.302,606.307L721.359,606.274L722.536,611.378L722.118,614.093L718.214,617.349L717.72,616.472L715.741,617.086L713.206,614.823L712.168,617.184L708.982,615.18L708.355,617.118L705.968,619.86L707.426,622.242L706.684,624.342L707.793,628.25L709.736,628.54L710.922,626.692L714.436,627.603L716.373,630.607L714.989,632.408L714.77,634.706L712.878,641.819L713.924,643.635L715.989,645.368L716.988,647.513L716.681,650.736L715.055,653.254L714.909,654.615L714.421,655.786L715.719,659.364L717.171,658.616L718.979,659.376L720.023,658.889L721.849,662.597L724.344,665.077L727.862,664.996L729.452,663.502L730.39,664.984L731.335,668.011L730.83,671.799L729.296,672.985L727.712,672.598L724.757,676.631L724.895,677.433L722.787,674.474L721.795,676.281L720.406,676.288L718.294,678.44L718.192,681.101L716.838,682.546L715.372,682.516L713.253,684.92L712.408,682.708L710.787,683.134L710.045,684.443L709.449,687.689L706.29,683.483L705.021,686.399L702.933,683.04L702.526,685.117L700.473,688.574L699.064,688.03L698.395,686.12L694.804,683.596L692.563,687.807L692.451,689.075L687.788,687.841L686.776,688.213L686.22,690.988L685.37,691.56L686.126,695.744L687.692,697.803L687.284,705.602L686.94,708.102L685.532,706.606L682.776,707.659L681.91,704.14L682.115,701.988L681.114,700.376L681.206,698.662L678.318,700.562L676.77,703.066L674.924,703.445L673.826,702.201L672.011,703.678L669.533,697.965L670.051,695.65L666.611,693.709L664.866,693.22L663.495,693.786L661.795,692.881L664.005,687.795L663.371,684.03L665.728,681.229L665.211,679.066L663.587,678.296L661.235,678.916L660.718,677.743L659.007,677.457L659.386,674.012L658.243,672.242L659.075,671.118L658.41,668.993L657.24,667.952L656.966,666.047L658.561,664.707L658.97,663.16L656.268,664.052L655.552,663.537L651.613,663.95L649.11,665.304L646.776,667.758L646.608,665.455L647.848,662.941L647.08,658.871L645.657,659.013L645.834,654.513L647.388,653.105L647.585,649.682L648.712,646.78L649.742,647.428L651.621,644.996L652.033,642.603L653.818,642.475L655.029,638.879L656.56,638.937L657.302,637.489L655.918,634.351L657.546,630.493L657.981,627.08L657.75,622.837L657.048,618.499L657.495,617.01L657.214,613.429L654.876,611.651L653.546,613.983L652.437,611.047L652.296,608.496L651.616,607.657L651.606,605.099L653.801,603.02L654.246,605.688L657.254,603.909L657.703,602.378L656.401,600L656.116,597.611L657.06,596.711L656.496,593.325L659.365,593.278L660.338,592.183L659.782,590.32Z" class="land" id="CN-YN" title="Yunnan"/>
    <path d="M872.062,618.054L871.472,615.813L870.512,615.319L868.1,616.067L866.824,617.174L864.99,615.34L864.386,612.991L863.043,612.078L860.571,615.465L858.26,614.381L857.214,614.846L857.122,611.259L855.344,606.404L856.142,605.447L855.272,602.746L852.496,603.036L852.576,597.596L850.85,594.044L849.25,593.061L848.574,590.437L850.171,587.379L853.064,585.745L853.711,584.282L855.59,582.59L855.745,581.032L857.123,579.551L856.865,577.347L857.73,573.767L860.426,574.727L861.624,572.985L860.807,570.72L862.547,569.738L863.844,567.145L864.458,562.972L867.198,562.473L868.02,564.538L869.593,565.791L871.741,565.531L873.121,568.143L874.864,565.543L876.963,564.739L877.953,564.885L880.625,569.225L877.89,571.06L877.09,573.651L875.642,574.37L876.68,576.66L879.737,574.269L881.274,574.234L883.035,575.929L884.767,579.109L885.887,579.309L887.755,581.436L884.943,585.044L882.847,585.273L882.443,587.111L887.07,583.871L887.76,586.504L886.979,588.763L887.262,590.222L884.765,590.546L885.215,593.669L884.344,594.292L884.132,597.163L883.054,597.727L883.785,602.772L882.584,602.495L881.619,604.005L879.191,603.18L877.663,607.431L874.07,613.05L873.246,618.76ZM888.142,578.96L887.683,576.739L888.902,576.649L891.229,578.546Z" class="land" id="CN-ZJ" title="Zhejiang"/>
  </g>
  <g id="labels" font-family="Inter, sans-serif" fill="#e0e0e0" text-anchor="middle" dominant-baseline="middle">
    <text x="840.72" y="553.68" font-size="11.00">Anhui</text>
    <text x="832.43" y="444.07" font-size="11.00">Beijing</text>
    <text x="747.99" y="578.20" font-size="11.00">Chongqing</text>
    <text x="848.09" y="634.92" font-size="11.00">Fujian</text>
    <text x="802.67" y="675.25" font-size="11.00">Guangdong</text>
    <text x="678.01" y="473.13" font-size="11.00">Gansu</text>
    <text x="757.02" y="668.02" font-size="11.00">Guangxi Zhuang</text>
    <text x="738.02" y="624.32" font-size="11.00">Guizhou</text>
    <text x="804.87" y="525.58" font-size="11.00">Henan</text>
    <text x="791.65" y="565.23" font-size="11.00">Hubei</text>
    <text x="829.56" y="452.25" font-size="11.00">Hebei</text>
    <text x="766.61" y="737.72" font-size="11.00">Hainan</text>
    <text x="810.26" y="688.37" font-size="11.00">Hong Kong</text>
    <text x="946.61" y="355.64" font-size="11.00">Heilongjiang</text>
    <text x="786.05" y="612.96" font-size="11.00">Hunan</text>
    <text x="929.79" y="402.09" font-size="11.00">Jilin</text>
    <text x="862.85" y="537.97" font-size="11.00">Jiangsu</text>
    <text x="825.60" y="612.97" font-size="11.00">Jiangxi</text>
    <text x="893.78" y="430.25" font-size="11.00">Liaoning</text>
    <text x="804.36" y="693.21" font-size="11.00">Macau</text>
    <text x="800.58" y="397.19" font-size="11.00">Nei Mongol</text>
    <text x="731.07" y="480.89" font-size="11.00">Ningxia Hui</text>
    <text x="630.86" y="501.97" font-size="11.00">Qinghai</text>
    <text x="696.94" y="570.30" font-size="11.00">Sichuan</text>
    <text x="849.66" y="492.74" font-size="11.00">Shandong</text>
    <text x="882.31" y="562.20" font-size="11.00">Shanghai</text>
    <text x="757.63" y="508.52" font-size="11.00">Shaanxi</text>
    <text x="791.60" y="477.26" font-size="11.00">Shanxi</text>
    <text x="841.67" y="454.88" font-size="11.00">Tianjin</text>
    <text x="877.72" y="669.14" font-size="11.00">Taiwan</text>
    <text x="521.53" y="433.33" font-size="11.00">Xinjiang Uygur</text>
    <text x="553.40" y="554.55" font-size="11.00">Xizang (Tibet)</text>
    <text x="684.81" y="651.21" font-size="11.00">Yunnan</text>
    <text x="868.73" y="590.45" font-size="11.00">Zhejiang</text>
  </g>
</svg>